<svg fill="none" xmlns="http://www.w3.org/2000/svg">
<mask id="mask0_308_2" style="mask-type:alpha" maskUnits="userSpaceOnUse" x="30" y="0" width="920" height="509">
<rect x="30" width="920" height="509" rx="23" fill="white"/>
</mask>
<g mask="url(#mask0_308_2)">
<path opacity="0.0991676" d="M-78.245 642.353L-527.256 376.729C-541.551 368.683 -553.804 355.501 -539.875 346.852L-89.2674 86.8897C-82.5126 82.6963 -72.2495 79.9444 -65.3637 83.9543L405.901 357.781C420.197 366.089 422.762 389.231 408.52 397.618L-19.075 641.933C-37.3366 652.537 -59.8353 652.697 -78.245 642.353Z" fill="#6862E6"/>
<path opacity="0.0991676" d="M-78.245 266.353L-527.256 0.729492C-541.551 -7.31652 -553.804 -20.4994 -539.875 -29.1482L-89.2674 -289.11C-82.5126 -293.304 -72.2494 -296.056 -65.3637 -292.046L405.901 -18.2192C420.197 -9.91114 422.762 13.231 408.52 21.6177L-19.075 265.933C-37.3366 276.537 -59.8353 276.697 -78.245 266.353Z" stroke="#1E1F36"/>
<path opacity="0.0991676" d="M-78.245 341.353L-527.256 75.7295C-541.551 67.6835 -553.804 54.5006 -539.875 45.8518L-89.2674 -214.11C-82.5126 -218.304 -72.2494 -221.056 -65.3637 -217.046L405.901 56.7808C420.197 65.0889 422.762 88.231 408.52 96.6177L-19.075 340.933C-37.3366 351.537 -59.8353 351.697 -78.245 341.353Z" stroke="#1E1F36"/>
<path d="M175.018 425.203L-44.6873 295.211C-51.682 291.273 -57.6775 284.822 -50.8621 280.589L169.625 153.367C172.93 151.315 177.952 149.968 181.321 151.93L411.916 285.937C418.91 290.003 420.166 301.329 413.197 305.433L203.971 424.998C195.035 430.187 184.026 430.265 175.018 425.203Z" fill="#5B36A0"/>
<path d="M175.018 419.203L-44.6873 289.211C-51.682 285.273 -57.6775 278.822 -50.8621 274.589L169.625 147.367C172.93 145.315 177.952 143.968 181.321 145.93L411.916 279.937C418.91 284.003 420.166 295.329 413.197 299.433L203.971 418.998C195.035 424.187 184.026 424.265 175.018 419.203Z" fill="#6862E6"/>
<g style="mix-blend-mode:multiply" opacity="0.25">
<path d="M193.133 247.693L149.781 272.46C149.781 272.46 216.564 313.26 230.22 319.006L255.188 283.093" fill="url(#paint0_linear_308_2)"/>
</g>
<g style="mix-blend-mode:multiply" opacity="0.25">
<path d="M178.157 366.513L134.792 341.798L91.4276 366.565C91.4276 366.565 114.013 380.366 135.599 393.038C149.307 383.328 163.027 373.517 178.157 366.513Z" fill="url(#paint1_linear_308_2)"/>
</g>
<g style="mix-blend-mode:multiply" opacity="0.46">
<path d="M84.7275 213.883L57.2227 229.595C57.2227 229.595 59.5543 243.999 73.2106 249.745L109.222 226.658" fill="url(#paint2_linear_308_2)"/>
</g>
<ellipse cx="98.1917" cy="217.898" rx="16.59" ry="11.6974" fill="#68E1FD"/>
<ellipse cx="98.1789" cy="210.997" rx="12.4265" ry="5.09196" fill="#974C26"/>
<path fill-rule="evenodd" clip-rule="evenodd" d="M97.4743 195.619C97.6536 197.915 97.7305 200.21 97.7305 202.506C97.7177 205.379 97.5768 208.252 97.2693 211.113C96.2829 209.74 95.3092 208.304 94.2844 206.688C92.9649 204.623 91.735 202.506 90.6077 200.339C89.5596 198.411 88.6643 196.404 87.9302 194.336C87.1138 192.09 86.4588 189.788 85.9702 187.448C85.8421 186.884 85.7268 186.217 85.6243 185.602V185.383V184.845C85.5218 183.639 85.4193 182.357 85.4193 181.074C85.3624 176.712 86.2041 172.385 87.8918 168.363C92.3772 174.876 95.4014 182.284 96.7569 190.078C96.8423 190.54 96.9234 191.006 97.0003 191.476C97.0003 191.386 97.1796 192.322 97.1796 192.669L97.3077 193.836C97.3675 194.426 97.423 195.02 97.4743 195.619ZM91.21 176.687C91.2099 176.687 91.2098 176.687 91.2098 176.687H91.197C91.2013 176.687 91.2056 176.687 91.21 176.687ZM91.21 176.687C91.5252 176.669 91.8412 176.704 92.145 176.79C91.8375 176.448 91.5258 176.114 91.2098 175.79C91.2755 176.085 91.2756 176.391 91.21 176.687Z" fill="#999A1C"/>
<path fill-rule="evenodd" clip-rule="evenodd" d="M105.494 198.338C104.405 200.428 103.278 202.34 101.996 204.276C100.446 206.7 98.7297 209.035 97.0259 211.305C96.9106 209.625 96.9106 207.88 96.9106 205.969C96.9106 203.52 97.0131 201.083 97.2437 198.646C97.4018 196.456 97.7316 194.281 98.2301 192.143C98.7534 189.809 99.4427 187.516 100.293 185.281C100.523 184.691 100.767 184.114 101.01 183.537L101.01 183.537L101.074 183.331L101.33 182.857C101.907 181.741 102.522 180.638 103.188 179.573C105.502 175.868 108.554 172.68 112.155 170.21C112.416 178.124 110.96 186 107.889 193.297C107.71 193.716 107.526 194.144 107.339 194.58L106.839 195.683L106.314 196.747C106.049 197.278 105.776 197.808 105.494 198.338ZM110.887 178.239C110.801 178.529 110.652 178.796 110.452 179.022C110.702 179.154 110.93 179.322 111.131 179.522C111.062 179.112 110.981 178.684 110.887 178.239Z" fill="#999A1C"/>
<path fill-rule="evenodd" clip-rule="evenodd" d="M105.75 207.919C104.478 208.663 103.196 209.355 101.907 209.997C100.293 210.805 98.6401 211.523 96.9875 212.216C97.4743 211.279 98.0251 210.317 98.6401 209.291C99.4471 208.009 100.293 206.726 101.202 205.443C101.993 204.312 102.871 203.244 103.828 202.25C104.865 201.158 105.978 200.142 107.159 199.21L108.107 198.505L108.21 198.415L108.504 198.235C109.183 197.825 109.862 197.427 110.567 197.068C113.004 195.814 115.673 195.076 118.407 194.9C115.997 199.25 112.676 203.026 108.671 205.969L107.954 206.495L107.339 206.931L106.711 207.329L105.75 207.919ZM115.102 198.812C114.963 198.941 114.796 199.038 114.615 199.095V199.107C114.701 199.268 114.761 199.441 114.794 199.62C114.906 199.355 115.008 199.086 115.102 198.812Z" fill="#999A1C"/>
<path fill-rule="evenodd" clip-rule="evenodd" d="M97.4743 195.619C97.6536 197.915 97.7305 200.21 97.7305 202.506C97.7177 205.379 97.5768 208.252 97.2693 211.113C96.2829 209.74 95.3092 208.304 94.2844 206.688C92.9649 204.623 91.735 202.506 90.6077 200.339C89.5596 198.411 88.6643 196.404 87.9302 194.336C87.1138 192.09 86.4588 189.788 85.9702 187.448C85.8421 186.884 85.7268 186.217 85.6243 185.602V185.383V184.845C85.5218 183.639 85.4193 182.357 85.4193 181.074C85.3624 176.712 86.2041 172.385 87.8918 168.363C92.3772 174.876 95.4014 182.284 96.7569 190.078C96.8423 190.54 96.9234 191.006 97.0003 191.476C97.0003 191.386 97.1796 192.322 97.1796 192.669L97.3077 193.836C97.3675 194.426 97.423 195.02 97.4743 195.619ZM91.21 176.687C91.2099 176.687 91.2098 176.687 91.2098 176.687H91.197C91.2013 176.687 91.2056 176.687 91.21 176.687ZM91.21 176.687C91.5252 176.669 91.8412 176.704 92.145 176.79C91.8375 176.448 91.5258 176.114 91.2098 175.79C91.2755 176.085 91.2756 176.391 91.21 176.687Z" fill="#999A1C"/>
<path fill-rule="evenodd" clip-rule="evenodd" d="M105.494 198.338C104.405 200.428 103.278 202.34 101.996 204.276C100.446 206.7 98.7297 209.035 97.0259 211.305C96.9106 209.625 96.9106 207.88 96.9106 205.969C96.9106 203.52 97.0131 201.083 97.2437 198.646C97.4018 196.456 97.7316 194.281 98.2301 192.143C98.7534 189.809 99.4427 187.516 100.293 185.281C100.523 184.691 100.767 184.114 101.01 183.537L101.01 183.537L101.074 183.331L101.33 182.857C101.907 181.741 102.522 180.638 103.188 179.573C105.502 175.868 108.554 172.68 112.155 170.21C112.416 178.124 110.96 186 107.889 193.297C107.71 193.716 107.526 194.144 107.339 194.58L106.839 195.683L106.314 196.747C106.049 197.278 105.776 197.808 105.494 198.338ZM110.887 178.239C110.801 178.529 110.652 178.796 110.452 179.022C110.702 179.154 110.93 179.322 111.131 179.522C111.062 179.112 110.981 178.684 110.887 178.239Z" fill="#999A1C"/>
<path fill-rule="evenodd" clip-rule="evenodd" d="M105.75 207.919C104.478 208.663 103.196 209.355 101.907 209.997C100.293 210.805 98.6401 211.523 96.9875 212.216C97.4743 211.279 98.0251 210.317 98.6401 209.291C99.4471 208.009 100.293 206.726 101.202 205.443C101.993 204.312 102.871 203.244 103.828 202.25C104.865 201.158 105.978 200.142 107.159 199.21L108.107 198.505L108.21 198.415L108.504 198.235C109.183 197.825 109.862 197.427 110.567 197.068C113.004 195.814 115.673 195.076 118.407 194.9C115.997 199.25 112.676 203.026 108.671 205.969L107.954 206.495L107.339 206.931L106.711 207.329L105.75 207.919ZM115.102 198.812C114.963 198.941 114.796 199.038 114.615 199.095V199.107C114.701 199.268 114.761 199.441 114.794 199.62C114.906 199.355 115.008 199.086 115.102 198.812Z" fill="#999A1C"/>
<path d="M210.35 238.022L186.356 249.565C184.513 250.452 183.311 252.285 183.231 254.33C183.15 256.375 184.205 258.297 185.971 259.326L242.839 292.545C245.392 294.04 248.669 293.254 250.269 290.763L264.092 269.24" fill="#A1482D"/>
<path d="M340.854 182.344L149.525 71.9624C146.853 70.4244 143.566 70.4283 140.898 71.9726C138.23 73.5169 136.587 76.3676 136.586 79.4528V194.285C136.586 196.851 137.953 199.222 140.173 200.505L344.146 318.39C345.578 319.221 347.345 319.222 348.778 318.393C350.211 317.565 351.093 316.032 351.09 314.375V200.018C351.084 192.717 347.18 185.976 340.854 182.344Z" fill="#F47B56"/>
<path d="M149.537 80.6457L335.089 187.525C339.122 189.85 341.608 194.154 341.61 198.812V284.888C341.607 286.564 340.714 288.112 339.265 288.953C337.816 289.793 336.031 289.798 334.577 288.967L145.348 180.304C143.907 179.477 143.017 177.941 143.017 176.277V84.4294C143.017 82.8741 143.844 81.4365 145.188 80.6567C146.532 79.8768 148.189 79.8726 149.537 80.6457Z" fill="white"/>
<ellipse cx="226.738" cy="238.465" rx="4.03558" ry="4.61719" transform="rotate(-10.9 226.738 238.465)" fill="#AB643C"/>
<path opacity="0.32" d="M199.41 197.427L285.639 249.296L328.235 224.503L252.126 180.15" fill="url(#paint3_linear_308_2)"/>
<path d="M305.97 187.102L212.746 130.193C211.73 129.604 210.474 129.615 209.468 130.22C208.461 130.825 207.862 131.93 207.903 133.104V165.529C207.896 166.722 208.513 167.832 209.53 168.453L302.742 224.157C303.739 224.724 304.962 224.717 305.952 224.138C306.942 223.559 307.549 222.496 307.546 221.348L308.033 191.117C308.106 189.507 307.321 187.979 305.97 187.102Z" fill="#E2AC00"/>
<path d="M283.667 203.789C287.01 208.47 292.89 209.779 296.785 206.726C300.679 203.673 301.128 197.402 297.784 192.733C294.44 188.064 288.56 186.743 284.666 189.796C280.771 192.848 280.323 199.107 283.667 203.789Z" fill="white"/>
<path d="M274.52 181.318L236.497 158.397C235.82 158.08 235.014 158.331 234.635 158.976C234.257 159.621 234.431 160.448 235.037 160.886L273.059 183.806C273.736 184.123 274.543 183.873 274.921 183.228C275.3 182.583 275.126 181.755 274.52 181.318Z" fill="#F2F2F2"/>
<path d="M272.957 190.629L220.548 159.039C219.885 158.807 219.152 159.084 218.808 159.697C218.464 160.31 218.609 161.081 219.151 161.527L271.496 193.13C272.173 193.448 272.98 193.197 273.358 192.552C273.737 191.907 273.563 191.08 272.957 190.642V190.629Z" fill="#F2F2F2"/>
<path d="M287.369 193.387L194.196 136.49C193.18 135.902 191.924 135.912 190.918 136.517C189.911 137.123 189.312 138.227 189.353 139.402V171.813C189.338 173.009 189.951 174.124 190.968 174.751L284.179 230.454C285.187 231.034 286.429 231.025 287.427 230.429C288.426 229.833 289.025 228.745 288.996 227.581L289.483 197.35C289.526 195.748 288.723 194.242 287.369 193.387Z" fill="#F47B56"/>
<path d="M265.065 210.074C268.409 214.755 274.289 216.063 278.184 213.011C282.078 209.958 282.526 203.686 279.183 199.018C275.839 194.349 269.959 193.028 266.065 196.08C262.17 199.133 261.722 205.392 265.065 210.074Z" fill="white"/>
<path d="M255.918 187.602L217.87 164.682C217.194 164.365 216.387 164.615 216.008 165.26C215.63 165.905 215.804 166.733 216.41 167.17L254.432 190.091C255.109 190.408 255.916 190.157 256.294 189.512C256.673 188.867 256.499 188.04 255.893 187.602H255.918Z" fill="#F2F2F2"/>
<path d="M254.343 196.978L201.946 165.336C201.27 165.019 200.463 165.27 200.084 165.915C199.706 166.56 199.88 167.387 200.486 167.825L252.895 199.415C253.572 199.732 254.378 199.482 254.757 198.837C255.136 198.192 254.962 197.364 254.355 196.927L254.343 196.978Z" fill="#F2F2F2"/>
<path d="M263.989 197.209L170.791 140.313C169.774 139.724 168.519 139.735 167.512 140.34C166.506 140.945 165.907 142.049 165.948 143.224V175.636C165.94 176.829 166.558 177.939 167.575 178.56L260.786 234.264C261.794 234.844 263.036 234.834 264.035 234.238C265.033 233.643 265.633 232.554 265.603 231.391L266.09 201.16C266.132 199.565 265.334 198.065 263.989 197.209Z" fill="#68E1FD"/>
<path d="M263.989 197.209L170.791 140.313C169.774 139.724 168.519 139.735 167.512 140.34C166.506 140.945 165.907 142.049 165.948 143.224V175.636C165.94 176.829 166.558 177.939 167.575 178.56L260.786 234.264C261.794 234.844 263.036 234.834 264.035 234.238C265.033 233.643 265.633 232.554 265.603 231.391L266.09 201.16C266.132 199.565 265.334 198.065 263.989 197.209Z" fill="#68E1FD"/>
<path d="M241.673 213.896C245.016 218.577 250.897 219.886 254.791 216.833C258.686 213.78 259.134 207.508 255.79 202.84C252.447 198.171 246.566 196.85 242.672 199.903C238.777 202.955 238.368 209.214 241.673 213.896Z" fill="white"/>
<path d="M232.526 191.425L194.491 168.504C193.814 168.187 193.007 168.438 192.629 169.083C192.25 169.728 192.424 170.555 193.03 170.993L231.053 193.913C231.729 194.23 232.536 193.979 232.915 193.335C233.293 192.69 233.119 191.862 232.513 191.425H232.526Z" fill="#F2F2F2"/>
<path d="M230.95 200.749L178.541 169.158C177.864 168.841 177.058 169.092 176.679 169.737C176.301 170.382 176.475 171.209 177.081 171.647L229.49 203.237C230.166 203.555 230.973 203.304 231.352 202.659C231.73 202.014 231.556 201.187 230.95 200.749Z" fill="#F2F2F2"/>
<path d="M141.672 194.028C135.649 199.218 131.094 205.901 128.464 213.408C123.826 226.235 135.42 247.192 135.42 247.192L153.458 232.891" fill="#FF8F6F"/>
<path d="M139.724 363.602L134.831 360.896L136.112 353.893C136.112 353.893 143.401 354.585 144.042 357.176" fill="#003B94"/>
<path d="M141.518 363.499C142.62 362.82 143.773 362.217 144.913 361.614C147.744 360.062 151.831 358.459 153.573 355.547C154.304 354.342 154.212 352.809 153.342 351.699C150.78 348.595 145.169 353.7 142.299 350.263C141.736 349.583 141.467 338.796 141.467 338.796L130.552 341.746C130.552 341.746 128.707 363.422 128.912 364.756C129.117 366.09 132.871 367.321 132.871 367.321C133.988 367.084 135.055 366.649 136.022 366.039C137.162 365.205 136.124 355.034 137.585 356.458C139.045 357.881 139.686 363.448 139.686 363.448C140.292 363.54 140.907 363.557 141.518 363.499Z" fill="#F47B56"/>
<path d="M160.568 374.081L155.674 371.413L156.955 364.41C156.955 364.41 164.244 365.103 164.885 367.694" fill="#003B94"/>
<path d="M162.412 373.978C163.514 373.298 164.667 372.696 165.807 372.093C168.638 370.541 172.725 368.938 174.467 366.026C175.198 364.821 175.106 363.288 174.237 362.178C171.674 359.074 166.063 364.179 163.194 360.742C162.63 360.062 162.361 349.275 162.361 349.275L151.446 352.225C151.446 352.225 149.589 373.978 149.794 375.261C149.999 376.543 153.752 377.826 153.752 377.826C154.87 377.588 155.937 377.154 156.904 376.543C158.044 375.71 157.006 365.539 158.467 366.962C159.927 368.386 160.568 373.953 160.568 373.953C161.179 374.037 161.799 374.046 162.412 373.978Z" fill="#F47B56"/>
<path d="M125.005 303.614L121.789 346.672C121.789 346.672 126.914 353.752 144.093 349.814L144.259 320.788" fill="#3E2928"/>
<path d="M144.849 312.144C144.477 315.85 144.849 356.74 144.849 356.74C144.849 356.74 149.601 365.641 170.291 356.74L169.996 321.994" fill="#3E2928"/>
<path d="M123.403 317.838C124.813 318.813 125.299 313.798 126.773 314.658C132.132 317.775 137.821 320.287 143.734 322.148H143.862C144.147 322.01 144.475 321.993 144.773 322.102C145.07 322.21 145.31 322.436 145.438 322.725C149.091 323.816 152.809 324.673 156.571 325.29C161.4 326.06 165.397 322.482 170.355 322.238C170.355 303.23 170.445 249.129 162.361 237.586L138.443 229.531C138.328 231.506 126.837 244.845 127.118 261.109C127.439 279.437 125.056 296.727 124.646 302.46C124.582 303.435 123.455 316.8 123.403 317.838Z" fill="#3E2928"/>
<path d="M164.564 215.73L162.361 237.534C162.361 237.534 144.516 238.253 136.829 232.943V214.447" fill="#FF8F6F"/>
<path d="M187.252 201.378L185.433 203.866C186.403 201.842 187.259 199.765 187.995 197.645C188.508 196.196 186.189 195.619 185.677 197.068L185.408 197.812C185.63 197.042 185.839 196.269 186.035 195.49C186.195 194.849 185.805 194.2 185.164 194.041C184.524 193.882 183.876 194.272 183.717 194.913C183.214 196.926 182.611 198.912 181.91 200.865C182.302 199.131 182.584 197.375 182.756 195.606C182.91 194.08 180.514 194.144 180.373 195.606C180.174 197.619 179.814 199.614 179.297 201.57C179.297 200.886 179.233 200.202 179.105 199.518C179.069 199.173 178.887 198.86 178.605 198.658C178.541 198.389 178.464 198.133 178.375 197.863C178.187 197.309 177.629 196.97 177.052 197.058C176.474 197.147 176.044 197.638 176.03 198.222L175.876 207.201C175.443 208.132 174.877 208.996 174.198 209.766C175.351 210.564 176.463 211.42 177.529 212.331C178.48 213.136 179.387 213.993 180.245 214.896C181.014 213.939 181.752 212.964 182.461 211.972C182.549 211.897 182.627 211.811 182.692 211.715C184.827 208.552 187.03 205.439 189.302 202.378C190.25 201.326 188.162 200.159 187.252 201.378Z" fill="#FFB5A9"/>
<path d="M153.24 195.85C153.24 195.85 161.669 198.12 165.09 203.545C167.232 207.3 169.119 211.195 170.739 215.204L176.965 205.52C176.965 205.52 184.524 207.842 187.521 211.562C187.521 211.562 178.554 231.185 170.739 232.866C162.925 234.546 154.623 221.348 154.623 221.348C154.623 221.348 152.907 226.863 153.24 220.976" fill="#FF8F6F"/>
<path d="M158.595 216.82C156.144 214.824 154.295 212.187 153.253 209.202C152.24 205.751 153.509 202.724 154.687 199.518C155.963 196.339 156.708 192.972 156.891 189.552C156.993 186.192 156.609 182.831 156.378 179.483C156.345 179.34 156.345 179.191 156.378 179.047C155.251 175.264 152.945 172.057 148.397 171.672C136.624 170.672 135.958 183.729 136.048 189.039C136.137 194.349 136.701 197.94 132.794 200.159C128.886 202.378 126.068 208.201 129.796 212.908C133.524 217.615 130.18 215.897 127.695 220.078C125.21 224.259 125.85 229.48 130.949 231.365C136.048 233.25 159.748 229.71 161.925 227.517C162.698 226.634 163.098 225.484 163.04 224.311C162.508 221.359 160.93 218.699 158.595 216.82Z" fill="#007F68"/>
<path fill-rule="evenodd" clip-rule="evenodd" d="M173.506 118.88C173.325 115.384 172.171 112.008 170.176 109.132C168.4 106.259 165.777 104.009 162.668 102.694C161.076 101.983 159.277 101.891 157.621 102.437C156.041 102.997 154.738 104.146 153.983 105.644C153.073 107.429 152.666 109.429 152.804 111.428C152.915 113.807 153.471 116.143 154.444 118.316C155.415 120.591 156.758 122.689 158.415 124.524C159.814 126.155 161.567 127.445 163.54 128.295C164.234 128.572 164.962 128.757 165.705 128.846C166.27 128.922 166.843 128.922 167.408 128.846C167.85 128.785 168.281 128.664 168.69 128.487C168.949 128.385 169.202 128.265 169.445 128.128L169.702 127.948L168.152 125.062L167.639 125.345C167.118 125.585 166.546 125.691 165.974 125.652C165.095 125.662 164.223 125.491 163.412 125.152C161.08 124.082 159.16 122.281 157.941 120.022C156.411 117.734 155.525 115.075 155.379 112.326C155.133 110.14 155.891 107.96 157.442 106.4C158.911 105.101 161.023 104.831 162.771 105.721C165.124 106.7 167.11 108.396 168.446 110.569C169.933 112.705 170.79 115.216 170.919 117.816C171.013 120.441 170.44 121.51 169.202 121.022C168.761 120.831 168.392 120.503 168.152 120.086C167.868 119.654 167.708 119.153 167.69 118.637L167.434 111.428L164.872 110.428V111.569L164.641 111.159C164.378 110.783 164.068 110.443 163.719 110.146C163.309 109.774 162.836 109.478 162.323 109.273C161.286 108.763 160.041 108.958 159.21 109.761C158.265 110.805 157.828 112.213 158.018 113.609C158.072 115.333 158.585 117.011 159.504 118.47C160.267 119.812 161.445 120.87 162.861 121.484C163.454 121.753 164.116 121.834 164.757 121.715C165.14 121.658 165.502 121.504 165.807 121.266C165.927 121.134 166.031 120.987 166.115 120.83L166.422 121.433C166.718 121.951 167.089 122.422 167.524 122.831C168.008 123.333 168.593 123.727 169.24 123.985C170.301 124.55 171.609 124.323 172.418 123.433C173.341 122.107 173.73 120.481 173.506 118.88ZM165.051 116.353C165.136 117.031 164.946 117.714 164.526 118.252C164.133 118.642 163.533 118.735 163.04 118.483C162.354 118.185 161.782 117.672 161.413 117.02C160.964 116.304 160.712 115.481 160.683 114.635C160.593 113.962 160.799 113.284 161.246 112.775C161.678 112.385 162.306 112.303 162.822 112.57C163.48 112.856 164.025 113.352 164.372 113.981C164.797 114.701 165.031 115.517 165.051 116.353Z" fill="#F47B56"/>
<path fill-rule="evenodd" clip-rule="evenodd" d="M324.764 257.761C324.586 254.264 323.432 250.887 321.433 248.013C319.721 245.108 317.152 242.805 314.079 241.421C312.482 240.715 310.68 240.623 309.019 241.164C307.44 241.732 306.138 242.884 305.381 244.383C304.471 246.164 304.063 248.16 304.202 250.155C304.312 252.534 304.869 254.87 305.842 257.043C306.813 259.322 308.155 261.424 309.813 263.263C311.214 264.89 312.966 266.176 314.938 267.022C315.628 267.303 316.351 267.492 317.09 267.586C317.66 267.661 318.237 267.661 318.807 267.586C319.246 267.517 319.676 267.397 320.088 267.227C320.348 267.124 320.6 267.004 320.844 266.868L321.1 266.688L319.55 263.802L319.037 264.084C318.515 264.32 317.944 264.426 317.372 264.392C316.492 264.392 315.622 264.217 314.81 263.879C312.482 262.861 310.542 261.121 309.275 258.915C307.743 256.629 306.857 253.97 306.713 251.22C306.441 249.029 307.182 246.833 308.725 245.256C310.198 243.964 312.308 243.7 314.054 244.589C316.4 245.568 318.38 247.259 319.716 249.424C321.202 251.565 322.059 254.08 322.189 256.684C322.266 259.313 321.74 260.378 320.459 259.89C320.018 259.699 319.65 259.371 319.409 258.954C319.129 258.52 318.97 258.02 318.948 257.505L318.691 250.296L316.129 249.309V250.45L315.886 250.04C315.622 249.661 315.312 249.316 314.963 249.014C314.554 248.641 314.081 248.346 313.567 248.142C312.534 247.633 311.294 247.828 310.467 248.629C309.515 249.669 309.078 251.08 309.275 252.477C309.329 254.207 309.847 255.89 310.774 257.351C311.535 258.698 312.713 259.761 314.131 260.378C314.72 260.647 315.379 260.723 316.014 260.596C316.398 260.542 316.76 260.387 317.064 260.147C317.182 260.013 317.285 259.867 317.372 259.711L317.679 260.313C317.978 260.83 318.349 261.301 318.781 261.712C319.268 262.211 319.852 262.604 320.498 262.866C321.559 263.426 322.864 263.2 323.675 262.314C324.598 260.988 324.987 259.362 324.764 257.761ZM316.321 255.234C316.402 255.914 316.208 256.597 315.783 257.133C315.387 257.519 314.788 257.607 314.297 257.351C313.61 257.048 313.039 256.531 312.67 255.876C312.221 255.163 311.969 254.345 311.94 253.503C311.851 252.828 312.061 252.148 312.517 251.643C312.951 251.257 313.578 251.181 314.092 251.451C314.748 251.736 315.289 252.233 315.63 252.862C316.061 253.58 316.299 254.397 316.321 255.234Z" fill="#F47B56"/>
<g style="mix-blend-mode:multiply" opacity="0.25">
<path d="M66.139 302.704L22.7744 278.001L-20.5774 302.755C-20.5774 302.755 3.54541 317.838 25.1316 330.511C38.8392 320.814 51.0223 309.72 66.139 302.704Z" fill="url(#paint4_linear_308_2)"/>
</g>
</g>
<defs>
<linearGradient id="paint0_linear_308_2" x1="192.715" y1="255.543" x2="181.685" y2="288.24" gradientUnits="userSpaceOnUse">
<stop stop-color="#78B46A"/>
<stop offset="0.03" stop-color="#7F3500"/>
<stop offset="1" stop-color="white"/>
</linearGradient>
<linearGradient id="paint1_linear_308_2" x1="120.536" y1="322.477" x2="101.981" y2="380.838" gradientUnits="userSpaceOnUse">
<stop stop-color="#78B46A"/>
<stop offset="0.03" stop-color="#7F3500"/>
<stop offset="1" stop-color="white"/>
</linearGradient>
<linearGradient id="paint2_linear_308_2" x1="74.7001" y1="200.002" x2="57.5362" y2="239.625" gradientUnits="userSpaceOnUse">
<stop stop-color="#78B46A"/>
<stop offset="0.03" stop-color="#7F3500"/>
<stop offset="1" stop-color="white"/>
</linearGradient>
<linearGradient id="paint3_linear_308_2" x1="315.656" y1="235.452" x2="308.951" y2="218.459" gradientUnits="userSpaceOnUse">
<stop stop-color="white" stop-opacity="0.01"/>
<stop offset="0.99" stop-color="#DC841E"/>
</linearGradient>
<linearGradient id="paint4_linear_308_2" x1="9.55504" y1="258.349" x2="-9.96715" y2="316.801" gradientUnits="userSpaceOnUse">
<stop stop-color="#78B46A"/>
<stop offset="0.03" stop-color="#7F3500"/>
<stop offset="1" stop-color="white"/>
</linearGradient>
</defs>
</svg>
